<svg width="360" height="800" viewBox="0 0 360 800" fill="none" xmlns="http://www.w3.org/2000/svg">
<rect width="360" height="800" fill="white"/>
<path d="M119.631 196.302L119.355 165.654L107.356 165.762L107.317 161.412L136.266 161.151L136.305 165.501L124.305 165.609L124.581 196.258L119.631 196.302ZM140.691 196.113L140.453 169.614L145.053 169.573L145.117 176.773L144.651 174.977C145.368 173.137 146.589 171.726 148.313 170.744C150.038 169.761 152.167 169.259 154.7 169.236L154.742 173.886C154.542 173.854 154.341 173.84 154.141 173.841C153.975 173.843 153.808 173.844 153.641 173.846C151.075 173.869 149.049 174.654 147.562 176.201C146.076 177.747 145.346 179.971 145.372 182.871L145.491 196.07L140.691 196.113ZM172.35 196.129C170.084 196.149 168.08 195.75 166.339 194.933C164.632 194.115 163.287 192.86 162.305 191.169C161.356 189.444 160.87 187.281 160.847 184.681L160.71 169.432L165.51 169.389L165.642 184.088C165.665 186.688 166.299 188.633 167.544 189.921C168.823 191.21 170.595 191.844 172.862 191.824C174.528 191.809 175.975 191.462 177.202 190.785C178.429 190.074 179.37 189.065 180.025 187.759C180.68 186.42 180.999 184.817 180.982 182.95L180.859 169.251L185.659 169.208L185.897 195.707L181.347 195.748L181.283 188.598L182.05 190.491C181.199 192.266 179.912 193.644 178.187 194.626C176.462 195.608 174.517 196.109 172.35 196.129ZM206.837 195.819C204.004 195.844 201.498 195.283 199.321 194.136C197.178 192.989 195.497 191.404 194.278 189.381C193.094 187.358 192.489 185.03 192.466 182.397C192.442 179.764 192.988 177.426 194.103 175.382C195.251 173.338 196.82 171.741 198.81 170.59C200.832 169.405 203.11 168.801 205.644 168.778C208.21 168.755 210.482 169.301 212.459 170.417C214.435 171.533 215.983 173.119 217.102 175.175C218.253 177.198 218.841 179.577 218.866 182.31C218.868 182.51 218.853 182.743 218.822 183.01C218.825 183.277 218.81 183.527 218.779 183.761L196.23 183.963L196.199 180.514L216.248 180.333L214.309 181.551C214.327 179.851 213.963 178.337 213.218 177.01C212.473 175.684 211.447 174.66 210.14 173.938C208.867 173.183 207.38 172.813 205.68 172.828C204.013 172.843 202.534 173.24 201.241 174.018C199.947 174.763 198.94 175.822 198.219 177.195C197.498 178.535 197.145 180.072 197.16 181.805L197.168 182.605C197.184 184.372 197.598 185.951 198.41 187.344C199.256 188.703 200.415 189.759 201.889 190.513C203.362 191.266 205.049 191.634 206.949 191.617C208.516 191.603 209.93 191.324 211.192 190.779C212.487 190.234 213.613 189.424 214.57 188.349L217.248 191.425C216.06 192.835 214.57 193.916 212.777 194.665C211.017 195.414 209.037 195.799 206.837 195.819ZM229.491 188.915L229.536 182.764L244.66 168.677L250.459 168.625L238.863 180.23L236.283 182.453L229.491 188.915ZM225.649 195.349L225.315 158.251L230.115 158.208L230.448 195.306L225.649 195.349ZM245.898 195.167L235.382 182.361L238.447 178.484L251.798 195.114L245.898 195.167Z" fill="url(#paint0_linear_494_640)"/>
<mask id="mask0_494_640" style="mask-type:alpha" maskUnits="userSpaceOnUse" x="143" y="62" width="75" height="75">
<path d="M189.917 64.0813C191.244 64.4756 192.364 65.3749 193.035 66.5859C193.706 67.7969 193.875 69.2229 193.506 70.5573C193.137 71.8917 192.259 73.028 191.061 73.722C189.863 74.4159 188.44 74.6121 187.099 74.2683C181.078 72.6142 174.667 73.1445 169 75.7653C163.333 78.3861 158.776 82.9281 156.137 88.5868C153.175 94.9394 152.858 102.209 155.255 108.795C157.652 115.382 162.568 120.746 168.92 123.708L164.453 133.289C145.933 124.653 137.919 102.642 146.556 84.1192C154.218 67.6878 172.618 59.2964 189.917 64.0813Z" fill="url(#paint1_linear_494_640)"/>
<path d="M207.184 82.4418C207.823 82.169 208.509 82.0247 209.203 82.0172C209.898 82.0098 210.587 82.1392 211.231 82.3982C211.876 82.6571 212.463 83.0405 212.959 83.5264C213.455 84.0124 213.851 84.5913 214.123 85.2302C216.168 90.0091 217.181 95.1662 217.095 100.364C217.009 105.561 215.826 110.682 213.624 115.391C204.987 133.914 182.974 141.923 164.454 133.287L168.922 123.706C173.77 125.967 179.191 126.704 184.466 125.818C189.742 124.932 194.625 122.467 198.47 118.746C202.314 115.026 204.939 110.227 205.997 104.983C207.056 99.7389 206.498 94.2972 204.397 89.3772C203.847 88.0879 203.832 86.633 204.355 85.3324C204.877 84.0317 205.895 82.992 207.184 82.4418Z" fill="url(#paint2_linear_494_640)"/>
</mask>
<g mask="url(#mask0_494_640)">
<rect x="160.295" y="46.3164" width="81.0476" height="81.0476" transform="rotate(25 160.295 46.3164)" fill="url(#paint3_angular_494_640)"/>
</g>
<path d="M77.5 337.5C18.5 345.5 0 283 0 283V800H360V148C360 148 333.5 294 287 306C221.143 322.995 218.5 251.739 176.5 258C134.5 264.261 136.5 329.5 77.5 337.5Z" fill="url(#paint4_linear_494_640)"/>
<defs>
<linearGradient id="paint0_linear_494_640" x1="179.497" y1="147.762" x2="180.045" y2="208.76" gradientUnits="userSpaceOnUse">
<stop stop-color="#69FFDB"/>
<stop offset="1" stop-color="#0C9BC8"/>
</linearGradient>
<linearGradient id="paint1_linear_494_640" x1="1674.84" y1="1184.17" x2="-1014.31" y2="6951.08" gradientUnits="userSpaceOnUse">
<stop stop-color="white"/>
<stop offset="1" stop-color="white" stop-opacity="0.55"/>
</linearGradient>
<linearGradient id="paint2_linear_494_640" x1="1444.54" y1="1765.6" x2="-558.129" y2="6060.35" gradientUnits="userSpaceOnUse">
<stop stop-color="white"/>
<stop offset="1" stop-color="#D00000"/>
</linearGradient>
<radialGradient id="paint3_angular_494_640" cx="0" cy="0" r="1" gradientUnits="userSpaceOnUse" gradientTransform="translate(197.67 91.9575) rotate(-76.6948) scale(59.8622 174.546)">
<stop stop-color="#75E6FF"/>
<stop offset="1" stop-color="#00A5DD"/>
</radialGradient>
<linearGradient id="paint4_linear_494_640" x1="178" y1="147.5" x2="178" y2="800" gradientUnits="userSpaceOnUse">
<stop stop-color="#A6E9FF"/>
<stop offset="1" stop-color="#00A5DD"/>
</linearGradient>
</defs>
</svg>
